<?xml version="1.0"?>
<svg width="512" height="640" xmlns="http://www.w3.org/2000/svg" xmlns:svg="http://www.w3.org/2000/svg" enable-background="new 0 0 512 512" version="1.1" xml:space="preserve">
 <g class="layer">
  <title>Layer 1</title>
  <g id="svg_1">
   <g id="svg_2">
    <g id="svg_3">
     <g id="svg_4">
      <path d="m104.01,104.01c-2.21,0 -4,-1.79 -4,-4l0,-96c0,-2.21 1.79,-4 4,-4c2.21,0 4,1.79 4,4l0,96c0,2.21 -1.79,4 -4,4z" id="svg_5"/>
     </g>
    </g>
    <g id="svg_6">
     <g id="svg_7">
      <path d="m168,104.01c-2.21,0 -4,-1.79 -4,-4l0,-96c0,-2.21 1.79,-4 4,-4s4,1.79 4,4l0,96c0,2.21 -1.78,4 -4,4z" id="svg_8"/>
     </g>
    </g>
    <g id="svg_9">
     <g id="svg_10">
      <path d="m168,104.01l-63.99,0c-2.21,0 -4,-1.79 -4,-4s1.79,-4 4,-4l63.99,0c2.22,0 4,1.79 4,4s-1.78,4 -4,4z" id="svg_11"/>
     </g>
    </g>
    <g id="svg_12">
     <g id="svg_13">
      <path d="m168,8.01l-63.99,0c-2.21,0 -4,-1.79 -4,-4s1.79,-4 4,-4l63.99,0c2.22,0 4,1.79 4,4s-1.78,4 -4,4z" id="svg_14"/>
     </g>
    </g>
    <g id="svg_15">
     <g id="svg_16">
      <path d="m128.01,64.01c-2.21,0 -4,-1.79 -4,-4l0,-40c0,-2.21 1.79,-4 4,-4s4,1.79 4,4l0,40c0,2.21 -1.79,4 -4,4z" id="svg_17"/>
     </g>
    </g>
    <g id="svg_18">
     <g id="svg_19">
      <path d="m144,64.01l-15.99,0c-2.21,0 -4,-1.79 -4,-4s1.79,-4 4,-4l15.99,0c2.22,0 4,1.79 4,4s-1.78,4 -4,4z" id="svg_20"/>
     </g>
    </g>
    <g id="svg_21">
     <g id="svg_22">
      <path d="m144,64.01c-2.21,0 -4,-1.79 -4,-4l0,-40c0,-2.21 1.79,-4 4,-4s4,1.79 4,4l0,40c0,2.21 -1.78,4 -4,4z" id="svg_23"/>
     </g>
    </g>
    <g id="svg_24">
     <g id="svg_25">
      <path d="m112,184c-2.01,0 -3.74,-1.51 -3.97,-3.55l-8,-72c-0.24,-2.2 1.34,-4.18 3.53,-4.42c2.22,-0.24 4.18,1.35 4.42,3.53l8,72c0.25,2.2 -1.34,4.18 -3.53,4.42c-0.15,0.02 -0.3,0.02 -0.45,0.02z" id="svg_26"/>
     </g>
    </g>
    <g id="svg_27">
     <g id="svg_28">
      <path d="m160.01,184c-0.15,0 -0.3,0 -0.45,-0.02c-2.19,-0.24 -3.77,-2.22 -3.53,-4.42l8,-72c0.24,-2.18 2.29,-3.72 4.42,-3.53c2.19,0.24 3.77,2.22 3.53,4.42l-8,72c-0.23,2.04 -1.96,3.55 -3.97,3.55z" id="svg_29"/>
     </g>
    </g>
    <g id="svg_30">
     <g id="svg_31">
      <path d="m120.01,120.01l-15.11,0c-2.21,0 -4,-1.79 -4,-4s1.79,-4 4,-4l15.11,0c2.21,0 4,1.79 4,4s-1.79,4 -4,4z" id="svg_32"/>
     </g>
    </g>
    <g id="svg_33">
     <g id="svg_34">
      <path d="m167.11,120.01l-15.1,0c-2.22,0 -4,-1.79 -4,-4s1.78,-4 4,-4l15.1,0c2.22,0 4,1.79 4,4s-1.79,4 -4,4z" id="svg_35"/>
     </g>
    </g>
    <g id="svg_36">
     <g id="svg_37">
      <path d="m152,136.01l-31.99,0c-2.21,0 -4,-1.79 -4,-4s1.79,-4 4,-4l31.99,0c2.22,0 4,1.79 4,4s-1.78,4 -4,4z" id="svg_38"/>
     </g>
    </g>
    <g id="svg_39">
     <g id="svg_40">
      <path d="m163.56,152.01l-11.56,0c-2.21,0 -4,-1.79 -4,-4s1.79,-4 4,-4l11.56,0c2.21,0 4,1.78 4,4s-1.79,4 -4,4z" id="svg_41"/>
     </g>
    </g>
    <g id="svg_42">
     <g id="svg_43">
      <path d="m120.01,152.01l-11.56,0c-2.21,0 -4,-1.79 -4,-4s1.79,-4 4,-4l11.56,0c2.21,0 4,1.78 4,4s-1.79,4 -4,4z" id="svg_44"/>
     </g>
    </g>
    <g id="svg_45">
     <g id="svg_46">
      <path d="m144,168l-15.99,0c-2.21,0 -4,-1.78 -4,-4c0,-2.21 1.79,-4 4,-4l15.99,0c2.22,0 4,1.79 4,4c0,2.22 -1.78,4 -4,4z" id="svg_47"/>
     </g>
    </g>
    <g id="svg_48">
     <g id="svg_49">
      <path d="m160,184l-47.99,0c-2.21,0 -4,-1.78 -4,-4c0,-2.21 1.79,-4 4,-4l47.99,0c2.22,0 4,1.79 4,4c0,2.22 -1.78,4 -4,4z" id="svg_50"/>
     </g>
    </g>
    <g id="svg_51">
     <g id="svg_52">
      <path d="m152,88.01l-31.99,0c-2.21,0 -4,-1.79 -4,-4c0,-2.21 1.79,-4 4,-4l31.99,0c2.22,0 4,1.79 4,4c0,2.21 -1.78,4 -4,4z" id="svg_53"/>
     </g>
    </g>
    <g id="svg_54">
     <g id="svg_55">
      <path d="m152,88.01c-2.21,0 -4,-1.79 -4,-4l0,-8c0,-2.21 1.79,-4 4,-4c2.22,0 4,1.79 4,4l0,8c0,2.21 -1.78,4 -4,4z" id="svg_56"/>
     </g>
    </g>
    <g id="svg_57">
     <g id="svg_58">
      <path d="m136.01,88.01c-2.21,0 -4,-1.79 -4,-4l0,-8c0,-2.21 1.78,-4 4,-4c2.21,0 4,1.79 4,4l0,8c-0.01,2.21 -1.79,4 -4,4z" id="svg_59"/>
     </g>
    </g>
    <g id="svg_60">
     <g id="svg_61">
      <path d="m120.01,88.01c-2.21,0 -4,-1.79 -4,-4l0,-8c0,-2.21 1.79,-4 4,-4c2.21,0 4,1.79 4,4l0,8c0,2.21 -1.79,4 -4,4z" id="svg_62"/>
     </g>
    </g>
   </g>
   <g id="svg_63">
    <g id="svg_64">
     <path d="m120.01,375.99c-2.21,0 -4,-1.78 -4,-4l0,-183.99c0,-2.21 1.79,-4 4,-4c2.21,0 4,1.79 4,4l0,183.99c0,2.21 -1.79,4 -4,4z" id="svg_65"/>
    </g>
   </g>
   <g id="svg_66">
    <g id="svg_67">
     <path d="m152,375.99c-2.21,0 -4,-1.78 -4,-4l0,-183.99c0,-2.21 1.79,-4 4,-4c2.22,0 4,1.79 4,4l0,183.99c0,2.21 -1.78,4 -4,4z" id="svg_68"/>
    </g>
   </g>
   <g id="svg_69">
    <g id="svg_70">
     <g id="svg_71">
      <path d="m344,104.01c-2.22,0 -4,-1.79 -4,-4l0,-96c0,-2.21 1.78,-4 4,-4s4,1.79 4,4l0,96c0,2.21 -1.79,4 -4,4z" id="svg_72"/>
     </g>
    </g>
    <g id="svg_73">
     <g id="svg_74">
      <path d="m407.99,104.01c-2.21,0 -4,-1.79 -4,-4l0,-96c0,-2.21 1.79,-4 4,-4s4,1.79 4,4l0,96c0,2.21 -1.79,4 -4,4z" id="svg_75"/>
     </g>
    </g>
    <g id="svg_76">
     <g id="svg_77">
      <path d="m407.99,104.01l-63.99,0c-2.22,0 -4,-1.79 -4,-4s1.78,-4 4,-4l63.99,0c2.21,0 4,1.79 4,4s-1.79,4 -4,4z" id="svg_78"/>
     </g>
    </g>
    <g id="svg_79">
     <g id="svg_80">
      <path d="m407.99,8.01l-63.99,0c-2.22,0 -4,-1.79 -4,-4s1.78,-4 4,-4l63.99,0c2.21,0 4,1.79 4,4s-1.79,4 -4,4z" id="svg_81"/>
     </g>
    </g>
    <g id="svg_82">
     <g id="svg_83">
      <path d="m367.99,64.01c-2.21,0 -4,-1.79 -4,-4l0,-40c0,-2.21 1.79,-4 4,-4s4,1.79 4,4l0,40c0,2.21 -1.79,4 -4,4z" id="svg_84"/>
     </g>
    </g>
    <g id="svg_85">
     <g id="svg_86">
      <path d="m383.99,64.01l-16,0c-2.21,0 -4,-1.79 -4,-4s1.79,-4 4,-4l16,0c2.21,0 4,1.79 4,4s-1.79,4 -4,4z" id="svg_87"/>
     </g>
    </g>
    <g id="svg_88">
     <g id="svg_89">
      <path d="m383.99,64.01c-2.21,0 -4,-1.79 -4,-4l0,-40c0,-2.21 1.79,-4 4,-4s4,1.79 4,4l0,40c0,2.21 -1.79,4 -4,4z" id="svg_90"/>
     </g>
    </g>
    <g id="svg_91">
     <g id="svg_92">
      <path d="m352,184c-2.02,0 -3.75,-1.51 -3.98,-3.55l-8,-72c-0.24,-2.2 1.33,-4.18 3.54,-4.42c2.25,-0.24 4.17,1.35 4.41,3.53l8,72c0.24,2.2 -1.34,4.18 -3.54,4.42c-0.14,0.02 -0.29,0.02 -0.43,0.02z" id="svg_93"/>
     </g>
    </g>
    <g id="svg_94">
     <g id="svg_95">
      <path d="m399.99,184c-0.14,0 -0.3,0 -0.44,-0.02c-2.2,-0.24 -3.78,-2.22 -3.53,-4.42l8,-72c0.24,-2.18 2.28,-3.72 4.41,-3.53c2.2,0.24 3.78,2.22 3.54,4.42l-8,72c-0.23,2.04 -1.96,3.55 -3.98,3.55z" id="svg_96"/>
     </g>
    </g>
    <g id="svg_97">
     <g id="svg_98">
      <path d="m359.99,120.01l-15.1,0c-2.21,0 -4,-1.79 -4,-4s1.79,-4 4,-4l15.1,0c2.22,0 4,1.79 4,4s-1.79,4 -4,4z" id="svg_99"/>
     </g>
    </g>
    <g id="svg_100">
     <g id="svg_101">
      <path d="m407.1,120.01l-15.11,0c-2.21,0 -4,-1.79 -4,-4s1.79,-4 4,-4l15.11,0c2.21,0 4,1.79 4,4s-1.79,4 -4,4z" id="svg_102"/>
     </g>
    </g>
    <g id="svg_103">
     <g id="svg_104">
      <path d="m391.99,136.01l-32,0c-2.21,0 -4,-1.79 -4,-4s1.79,-4 4,-4l32,0c2.21,0 4,1.79 4,4s-1.79,4 -4,4z" id="svg_105"/>
     </g>
    </g>
    <g id="svg_106">
     <g id="svg_107">
      <path d="m403.56,152.01l-11.57,0c-2.21,0 -4,-1.79 -4,-4s1.79,-4 4,-4l11.57,0c2.21,0 4,1.78 4,4s-1.79,4 -4,4z" id="svg_108"/>
     </g>
    </g>
    <g id="svg_109">
     <g id="svg_110">
      <path d="m359.99,152.01l-11.54,0c-2.21,0 -4,-1.79 -4,-4s1.79,-4 4,-4l11.54,0c2.22,0 4,1.78 4,4s-1.79,4 -4,4z" id="svg_111"/>
     </g>
    </g>
    <g id="svg_112">
     <g id="svg_113">
      <path d="m383.99,168l-16,0c-2.21,0 -4,-1.78 -4,-4c0,-2.21 1.79,-4 4,-4l16,0c2.21,0 4,1.79 4,4c0,2.22 -1.79,4 -4,4z" id="svg_114"/>
     </g>
    </g>
    <g id="svg_115">
     <g id="svg_116">
      <path d="m399.99,184l-47.99,0c-2.22,0 -4,-1.78 -4,-4c0,-2.21 1.78,-4 4,-4l47.99,0c2.21,0 4,1.79 4,4c0,2.22 -1.79,4 -4,4z" id="svg_117"/>
     </g>
    </g>
    <g id="svg_118">
     <g id="svg_119">
      <path d="m391.99,88.01l-32,0c-2.21,0 -4,-1.79 -4,-4c0,-2.21 1.79,-4 4,-4l32,0c2.21,0 4,1.79 4,4c0,2.21 -1.79,4 -4,4z" id="svg_120"/>
     </g>
    </g>
    <g id="svg_121">
     <g id="svg_122">
      <path d="m391.99,88.01c-2.21,0 -4,-1.79 -4,-4l0,-8c0,-2.21 1.79,-4 4,-4c2.21,0 4,1.79 4,4l0,8c0,2.21 -1.79,4 -4,4z" id="svg_123"/>
     </g>
    </g>
    <g id="svg_124">
     <g id="svg_125">
      <path d="m375.99,88.01c-2.21,0 -4,-1.79 -4,-4l0,-8c0,-2.21 1.79,-4 4,-4c2.21,0 4,1.79 4,4l0,8c0,2.21 -1.79,4 -4,4z" id="svg_126"/>
     </g>
    </g>
    <g id="svg_127">
     <g id="svg_128">
      <path d="m359.99,88.01c-2.21,0 -4,-1.79 -4,-4l0,-8c0,-2.21 1.79,-4 4,-4s4,1.79 4,4l0,8c0,2.21 -1.79,4 -4,4z" id="svg_129"/>
     </g>
    </g>
   </g>
   <g id="svg_130">
    <g id="svg_131">
     <path d="m359.99,263.99c-2.21,0 -4,-1.79 -4,-4l0,-71.99c0,-2.21 1.79,-4 4,-4s4,1.79 4,4l0,71.99c0,2.21 -1.79,4 -4,4z" id="svg_132"/>
    </g>
   </g>
   <g id="svg_133">
    <g id="svg_134">
     <path d="m391.99,312c-2.21,0 -4,-1.79 -4,-4l0,-120c0,-2.21 1.79,-4 4,-4c2.21,0 4,1.79 4,4l0,120c0,2.21 -1.79,4 -4,4z" id="svg_135"/>
    </g>
   </g>
   <g id="svg_136">
    <g id="svg_137">
     <path d="m256,511.99c-77.19,0 -139.99,-62.8 -139.99,-140c0,-2.21 1.79,-4 4,-4c2.21,0 4,1.79 4,4c0,72.78 59.21,132 131.99,132c72.78,0 132,-59.22 132,-132s-59.22,-131.99 -132,-131.99c-31.11,0 -61.32,11.03 -85.05,31.06c-1.69,1.42 -4.22,1.2 -5.64,-0.48c-1.42,-1.69 -1.21,-4.21 0.48,-5.63c25.17,-21.25 57.21,-32.95 90.21,-32.95c77.19,0 139.99,62.8 139.99,139.99s-62.8,140 -139.99,140z" id="svg_138"/>
    </g>
   </g>
   <g id="svg_139">
    <g id="svg_140">
     <path d="m256,479.99c-59.55,0 -107.99,-48.44 -107.99,-108c0,-2.21 1.78,-4 4,-4c2.21,0 4,1.79 4,4c0,55.14 44.85,100 99.99,100c55.14,0 100,-44.86 100,-100s-44.86,-99.99 -100,-99.99c-34.52,0 -66.15,17.46 -84.61,46.69c-1.18,1.88 -3.64,2.45 -5.52,1.25c-1.87,-1.18 -2.43,-3.65 -1.25,-5.51c19.93,-31.58 54.1,-50.43 91.38,-50.43c59.54,0 108,48.44 108,107.99s-48.46,108 -108,108z" id="svg_141"/>
    </g>
   </g>
  </g>
 </g>
</svg>